# xmcd
#
# Track frame offsets: 
#        150
#        10795
#        25521
#        38151
#        52402
#        62990
#        76715
#        86974
#        100543
#        119122
#        133894
#        144419
#        158230
#        169647
#        182178
#
# Disc length: 2688 seconds
#
# Revision: 0
# Processed by: cddbd v1.5PL3 Copyright (c) Steve Scherf et al.
# Submitted via: ExactAudioCopy v0.95a5
#
DISCID=ca0a7e0f
DTITLE=Flatland - Flatland Favorites
DYEAR=2002
DGENRE=Bluegrass
TTITLE0=Red Apple Rag
TTITLE1=Bluegrass Cabin Home
TTITLE2=Why Don't You Tell Me So
TTITLE3=Paradise
TTITLE4=Oh ,I Believe
TTITLE5=Rebel Soldier
TTITLE6=Pain In My Heart
TTITLE7=I'll Never Shed Another Tear
TTITLE8=Maiden's Prayer
TTITLE9=Grampa Was A Farmer
TTITLE10=I Never Once Got Tired Of You
TTITLE11=Little Annie
TTITLE12=Smokey Mountain Smoke
TTITLE13=Dark Hollow
TTITLE14=Silver-Haired Daddy Of Mine
EXTD=
EXTT0=
EXTT1=
EXTT2=
EXTT3=
EXTT4=
EXTT5=
EXTT6=
EXTT7=
EXTT8=
EXTT9=
EXTT10=
EXTT11=
EXTT12=
EXTT13=
EXTT14=
PLAYORDER=
